<svg width="70" height="70" viewBox="0 0 70 70" fill="none" xmlns="http://www.w3.org/2000/svg">
<rect width="70" height="70" rx="35" fill="#EAEAFE"/>
<path d="M24.5494 30.5211V42.4648M31.2678 30.5211V42.4648M38.7326 30.5211V42.4648M45.451 30.5211V42.4648M21.5635 44.8536L21.5635 46.048C21.5635 46.8841 21.5635 47.3022 21.7262 47.6215C21.8693 47.9025 22.0977 48.1309 22.3787 48.274C22.698 48.4367 23.1161 48.4367 23.9522 48.4367H46.0482C46.8843 48.4367 47.3024 48.4367 47.6217 48.274C47.9027 48.1309 48.1311 47.9025 48.2742 47.6215C48.4369 47.3022 48.4369 46.8841 48.4369 46.048V44.8536C48.4369 44.0175 48.4369 43.5994 48.2742 43.28C48.1311 42.9991 47.9027 42.7707 47.6217 42.6276C47.3024 42.4648 46.8843 42.4648 46.0482 42.4648H23.9522C23.1161 42.4648 22.698 42.4648 22.3787 42.6276C22.0977 42.7707 21.8693 42.9991 21.7262 43.28C21.5635 43.5994 21.5635 44.0175 21.5635 44.8536ZM34.482 21.6784L23.434 24.1335C22.7666 24.2819 22.4329 24.356 22.1838 24.5355C21.964 24.6938 21.7915 24.9089 21.6846 25.1577C21.5635 25.4398 21.5635 25.7817 21.5635 26.4654L21.5635 28.1323C21.5635 28.9685 21.5635 29.3866 21.7262 29.7059C21.8693 29.9868 22.0977 30.2152 22.3787 30.3584C22.698 30.5211 23.1161 30.5211 23.9522 30.5211H46.0482C46.8843 30.5211 47.3024 30.5211 47.6217 30.3584C47.9027 30.2152 48.1311 29.9868 48.2742 29.7059C48.4369 29.3866 48.4369 28.9685 48.4369 28.1323V26.4654C48.4369 25.7817 48.4369 25.4398 48.3158 25.1577C48.2089 24.9089 48.0364 24.6938 47.8166 24.5355C47.5675 24.356 47.2338 24.2819 46.5664 24.1335L35.5184 21.6784C35.325 21.6355 35.2283 21.614 35.1306 21.6054C35.0438 21.5978 34.9566 21.5978 34.8698 21.6054C34.7721 21.614 34.6754 21.6355 34.482 21.6784Z" stroke="#4341CD" stroke-width="2.55938" stroke-linecap="round" stroke-linejoin="round"/>
</svg>
