<svg width="204" height="60" viewBox="0 0 204 60" fill="none" xmlns="http://www.w3.org/2000/svg">
<g id="Mobile app store badge">
<rect x="1.01923" y="0.75" width="201.5" height="58.5" rx="6.17308" fill="black"/>
<g id="App Store">
<path d="M134.845 28.1404V31.5769H132.691V33.8306H134.845V41.4881C134.845 44.1028 136.028 45.1487 139.004 45.1487C139.527 45.1487 140.025 45.0864 140.461 45.0117V42.783C140.087 42.8203 139.85 42.8452 139.44 42.8452C138.107 42.8452 137.522 42.2227 137.522 40.8032V33.8306H140.461V31.5769H137.522V28.1404H134.845Z" fill="white"/>
<path d="M148.041 45.3355C152.001 45.3355 154.429 42.6834 154.429 38.2881C154.429 33.9177 151.988 31.2532 148.041 31.2532C144.082 31.2532 141.641 33.9177 141.641 38.2881C141.641 42.6834 144.069 45.3355 148.041 45.3355ZM148.041 42.9573C145.713 42.9573 144.406 41.2515 144.406 38.2881C144.406 35.3496 145.713 33.6314 148.041 33.6314C150.357 33.6314 151.677 35.3496 151.677 38.2881C151.677 41.239 150.357 42.9573 148.041 42.9573Z" fill="white"/>
<path d="M156.506 45.074H159.183V37.0679C159.183 35.1629 160.615 33.8804 162.645 33.8804C163.118 33.8804 163.915 33.9675 164.139 34.0423V31.4026C163.852 31.3279 163.342 31.2905 162.943 31.2905C161.175 31.2905 159.669 32.2617 159.283 33.594H159.084V31.5147H156.506V45.074Z" fill="white"/>
<path d="M170.786 33.5318C172.765 33.5318 174.06 34.9138 174.123 37.043H167.274C167.424 34.9263 168.806 33.5318 170.786 33.5318ZM174.11 41.4133C173.612 42.4717 172.504 43.0569 170.885 43.0569C168.744 43.0569 167.362 41.5503 167.274 39.1721V39.0227H176.849V38.0889C176.849 33.8306 174.571 31.2532 170.798 31.2532C166.976 31.2532 164.548 34.0049 164.548 38.3379C164.548 42.6709 166.926 45.3355 170.811 45.3355C173.911 45.3355 176.077 43.8413 176.688 41.4133H174.11Z" fill="white"/>
<path d="M117.29 40.0667C117.496 43.3963 120.271 45.5257 124.401 45.5257C128.814 45.5257 131.576 43.2931 131.576 39.7312C131.576 36.9308 130.001 35.3821 126.181 34.4917L124.13 33.9884C121.703 33.4205 120.723 32.6591 120.723 31.3299C120.723 29.6522 122.245 28.5552 124.53 28.5552C126.698 28.5552 128.195 29.6264 128.466 31.3428H131.279C131.111 28.2068 128.35 26 124.568 26C120.503 26 117.793 28.2068 117.793 31.5235C117.793 34.2594 119.329 35.8854 122.697 36.6727L125.097 37.2534C127.562 37.8341 128.646 38.6859 128.646 40.1055C128.646 41.7573 126.943 42.9575 124.62 42.9575C122.129 42.9575 120.4 41.8348 120.155 40.0667H117.29Z" fill="white"/>
<path d="M89.5587 31.2905C87.716 31.2905 86.1222 32.2119 85.3004 33.7559H85.1012V31.5147H82.5238V49.5813H85.2008V43.0196H85.4125C86.1222 44.4514 87.6537 45.2981 89.5836 45.2981C93.0077 45.2981 95.1867 42.5962 95.1867 38.2881C95.1867 33.98 93.0077 31.2905 89.5587 31.2905ZM88.7992 42.895C86.558 42.895 85.151 41.127 85.151 38.3006C85.151 35.4617 86.558 33.6936 88.8117 33.6936C91.0778 33.6936 92.4349 35.4243 92.4349 38.2881C92.4349 41.1643 91.0778 42.895 88.7992 42.895Z" fill="white"/>
<path d="M104.554 31.2905C102.711 31.2905 101.117 32.2119 100.296 33.7559H100.096V31.5147H97.519V49.5813H100.196V43.0196H100.408C101.117 44.4514 102.649 45.2981 104.579 45.2981C108.003 45.2981 110.182 42.5962 110.182 38.2881C110.182 33.98 108.003 31.2905 104.554 31.2905ZM103.794 42.895C101.553 42.895 100.146 41.127 100.146 38.3006C100.146 35.4617 101.553 33.6936 103.807 33.6936C106.073 33.6936 107.43 35.4243 107.43 38.2881C107.43 41.1643 106.073 42.895 103.794 42.895Z" fill="white"/>
<path d="M77.7208 45.074H80.7923L74.0686 26.4517H70.9584L64.2348 45.074H67.203L68.9194 40.1313H76.0173L77.7208 45.074ZM72.3651 29.8329H72.5845L75.2817 37.7051H69.655L72.3651 29.8329Z" fill="white"/>
</g>
<g id="Download on the">
<path d="M68.2348 10.442V19.4255H71.4783C74.1553 19.4255 75.7055 17.7758 75.7055 14.9058C75.7055 12.0793 74.1429 10.442 71.4783 10.442H68.2348ZM69.6293 11.712H71.3227C73.1841 11.712 74.2861 12.8949 74.2861 14.9244C74.2861 16.9851 73.2028 18.1555 71.3227 18.1555H69.6293V11.712Z" fill="white"/>
<path d="M80.4531 19.5563C82.4329 19.5563 83.6469 18.2302 83.6469 16.0326C83.6469 13.8474 82.4266 12.5151 80.4531 12.5151C78.4734 12.5151 77.2532 13.8474 77.2532 16.0326C77.2532 18.2302 78.4672 19.5563 80.4531 19.5563ZM80.4531 18.3672C79.289 18.3672 78.6353 17.5143 78.6353 16.0326C78.6353 14.5634 79.289 13.7042 80.4531 13.7042C81.6111 13.7042 82.271 14.5634 82.271 16.0326C82.271 17.5081 81.6111 18.3672 80.4531 18.3672Z" fill="white"/>
<path d="M93.9851 12.6459H92.6466L91.4388 17.8193H91.333L89.9384 12.6459H88.656L87.2614 17.8193H87.1618L85.9478 12.6459H84.5907L86.4583 19.4255H87.8342L89.2287 14.4326H89.3346L90.7353 19.4255H92.1236L93.9851 12.6459Z" fill="white"/>
<path d="M95.5265 19.4255H96.865V15.4598C96.865 14.4015 97.4938 13.7416 98.4837 13.7416C99.4735 13.7416 99.9467 14.2832 99.9467 15.3727V19.4255H101.285V15.0365C101.285 13.4241 100.451 12.5151 98.9381 12.5151C97.9171 12.5151 97.2448 12.9696 96.9148 13.7229H96.8152V12.6459H95.5265V19.4255Z" fill="white"/>
<path d="M103.393 19.4255H104.732V10H103.393V19.4255Z" fill="white"/>
<path d="M109.766 19.5563C111.745 19.5563 112.959 18.2302 112.959 16.0326C112.959 13.8474 111.739 12.5151 109.766 12.5151C107.786 12.5151 106.566 13.8474 106.566 16.0326C106.566 18.2302 107.78 19.5563 109.766 19.5563ZM109.766 18.3672C108.601 18.3672 107.948 17.5143 107.948 16.0326C107.948 14.5634 108.601 13.7042 109.766 13.7042C110.924 13.7042 111.584 14.5634 111.584 16.0326C111.584 17.5081 110.924 18.3672 109.766 18.3672Z" fill="white"/>
<path d="M116.948 18.4108C116.219 18.4108 115.69 18.0559 115.69 17.4458C115.69 16.8481 116.113 16.5306 117.047 16.4684L118.703 16.3625V16.9291C118.703 17.7695 117.956 18.4108 116.948 18.4108ZM116.605 19.5376C117.495 19.5376 118.236 19.1516 118.641 18.473H118.747V19.4255H120.035V14.7937C120.035 13.3618 119.077 12.5151 117.377 12.5151C115.839 12.5151 114.744 13.2622 114.607 14.4264H115.902C116.051 13.947 116.568 13.6731 117.315 13.6731C118.23 13.6731 118.703 14.0778 118.703 14.7937V15.3789L116.867 15.4847C115.254 15.5844 114.345 16.2878 114.345 17.5081C114.345 18.7469 115.298 19.5376 116.605 19.5376Z" fill="white"/>
<path d="M124.578 19.5376C125.511 19.5376 126.302 19.0956 126.707 18.3547H126.813V19.4255H128.095V10H126.757V13.7229H126.657C126.29 12.9758 125.505 12.5338 124.578 12.5338C122.866 12.5338 121.764 13.891 121.764 16.0326C121.764 18.1804 122.853 19.5376 124.578 19.5376ZM124.957 13.7354C126.078 13.7354 126.781 14.6256 126.781 16.0388C126.781 17.4583 126.084 18.3361 124.957 18.3361C123.824 18.3361 123.146 17.4707 123.146 16.0326C123.146 14.6069 123.831 13.7354 124.957 13.7354Z" fill="white"/>
<path d="M136.775 19.5563C138.755 19.5563 139.968 18.2302 139.968 16.0326C139.968 13.8474 138.748 12.5151 136.775 12.5151C134.795 12.5151 133.575 13.8474 133.575 16.0326C133.575 18.2302 134.789 19.5563 136.775 19.5563ZM136.775 18.3672C135.611 18.3672 134.957 17.5143 134.957 16.0326C134.957 14.5634 135.611 13.7042 136.775 13.7042C137.933 13.7042 138.593 14.5634 138.593 16.0326C138.593 17.5081 137.933 18.3672 136.775 18.3672Z" fill="white"/>
<path d="M141.74 19.4255H143.079V15.4598C143.079 14.4015 143.708 13.7416 144.697 13.7416C145.687 13.7416 146.16 14.2832 146.16 15.3727V19.4255H147.499V15.0365C147.499 13.4241 146.665 12.5151 145.152 12.5151C144.131 12.5151 143.459 12.9696 143.129 13.7229H143.029V12.6459H141.74V19.4255Z" fill="white"/>
<path d="M153.664 10.9587V12.677H152.587V13.8038H153.664V17.6326C153.664 18.9399 154.255 19.4629 155.743 19.4629C156.004 19.4629 156.253 19.4318 156.471 19.3944V18.28C156.285 18.2987 156.166 18.3112 155.961 18.3112C155.295 18.3112 155.002 17.9999 155.002 17.2902V13.8038H156.471V12.677H155.002V10.9587H153.664Z" fill="white"/>
<path d="M158.268 19.4255H159.606V15.4661C159.606 14.4388 160.217 13.7478 161.312 13.7478C162.259 13.7478 162.763 14.2957 162.763 15.3789V19.4255H164.101V15.0489C164.101 13.4365 163.211 12.5214 161.767 12.5214C160.746 12.5214 160.03 12.9758 159.7 13.7354H159.594V10H158.268V19.4255Z" fill="white"/>
<path d="M168.93 13.6544C169.92 13.6544 170.567 14.3455 170.598 15.41H167.174C167.249 14.3517 167.94 13.6544 168.93 13.6544ZM170.592 17.5952C170.343 18.1244 169.789 18.417 168.98 18.417C167.909 18.417 167.218 17.6637 167.174 16.4746V16.3999H171.962V15.933C171.962 13.8038 170.822 12.5151 168.936 12.5151C167.025 12.5151 165.811 13.891 165.811 16.0575C165.811 18.224 167 19.5563 168.942 19.5563C170.493 19.5563 171.576 18.8092 171.881 17.5952H170.592Z" fill="white"/>
</g>
<g id="Apple logo">
<path d="M48.9267 29.4512C48.9592 26.9297 50.3134 24.5438 52.4616 23.2231C51.1064 21.2877 48.8365 20.0605 46.4748 19.9866C43.956 19.7222 41.5141 21.4939 40.2305 21.4939C38.9221 21.4939 36.9458 20.0129 34.8177 20.0567C32.0439 20.1463 29.4579 21.7233 28.1084 24.1485C25.2074 29.1711 27.3712 36.5527 30.1502 40.6126C31.5405 42.6006 33.1654 44.8213 35.2916 44.7425C37.3722 44.6562 38.1493 43.4158 40.6607 43.4158C43.1488 43.4158 43.8779 44.7425 46.0472 44.6925C48.2798 44.6562 49.6864 42.6956 51.028 40.6887C52.0269 39.2722 52.7956 37.7066 53.3056 36.05C50.6819 34.9403 48.9298 32.2999 48.9267 29.4512Z" fill="white"/>
<path d="M44.8292 17.3166C46.0465 15.8553 46.6462 13.977 46.501 12.0807C44.6413 12.276 42.9234 13.1649 41.6897 14.5701C40.4832 15.9431 39.8554 17.7883 39.9741 19.6122C41.8345 19.6313 43.6635 18.7666 44.8292 17.3166Z" fill="white"/>
</g>
<rect x="1.01923" y="0.75" width="201.5" height="58.5" rx="6.17308" stroke="#E5E6E8" stroke-width="1.5"/>
</g>
</svg>
