<svg width="204" height="61" viewBox="0 0 204 61" fill="none" xmlns="http://www.w3.org/2000/svg">
<rect x="1.28845" y="0.877197" width="201.5" height="58.5" rx="6.17308" fill="#232949"/>
<rect x="1.28845" y="0.877197" width="201.5" height="58.5" rx="6.17308" stroke="#E5E6E8" stroke-width="1.5"/>
<path d="M135.114 28.2676V31.7041H132.96V33.9578H135.114V41.6153C135.114 44.23 136.297 45.2759 139.273 45.2759C139.796 45.2759 140.294 45.2136 140.73 45.1389V42.9102C140.356 42.9475 140.12 42.9724 139.709 42.9724C138.377 42.9724 137.791 42.3499 137.791 40.9304V33.9578H140.73V31.7041H137.791V28.2676H135.114Z" fill="white"/>
<path d="M148.311 45.4627C152.27 45.4627 154.698 42.8106 154.698 38.4153C154.698 34.0449 152.258 31.3804 148.311 31.3804C144.351 31.3804 141.911 34.0449 141.911 38.4153C141.911 42.8106 144.339 45.4627 148.311 45.4627ZM148.311 43.0845C145.982 43.0845 144.675 41.3787 144.675 38.4153C144.675 35.4768 145.982 33.7586 148.311 33.7586C150.626 33.7586 151.946 35.4768 151.946 38.4153C151.946 41.3662 150.626 43.0845 148.311 43.0845Z" fill="white"/>
<path d="M156.775 45.2012H159.452V37.1951C159.452 35.2901 160.884 34.0076 162.914 34.0076C163.387 34.0076 164.184 34.0947 164.408 34.1695V31.5298C164.122 31.4551 163.611 31.4177 163.213 31.4177C161.445 31.4177 159.938 32.3889 159.552 33.7212H159.353V31.6419H156.775V45.2012Z" fill="white"/>
<path d="M171.055 33.659C173.035 33.659 174.33 35.041 174.392 37.1702H167.544C167.693 35.0535 169.075 33.659 171.055 33.659ZM174.379 41.5405C173.881 42.5989 172.773 43.1841 171.154 43.1841C169.013 43.1841 167.631 41.6775 167.544 39.2993V39.1499H177.119V38.2161C177.119 33.9578 174.84 31.3804 171.067 31.3804C167.245 31.3804 164.817 34.1321 164.817 38.4651C164.817 42.7981 167.195 45.4627 171.08 45.4627C174.18 45.4627 176.347 43.9685 176.957 41.5405H174.379Z" fill="white"/>
<path d="M117.559 40.1939C117.765 43.5235 120.54 45.6529 124.67 45.6529C129.083 45.6529 131.845 43.4203 131.845 39.8584C131.845 37.058 130.271 35.5093 126.451 34.6189L124.399 34.1156C121.973 33.5477 120.992 32.7863 120.992 31.4571C120.992 29.7794 122.515 28.6824 124.799 28.6824C126.967 28.6824 128.464 29.7536 128.735 31.47H131.548C131.381 28.334 128.619 26.1272 124.838 26.1272C120.772 26.1272 118.062 28.334 118.062 31.6507C118.062 34.3866 119.598 36.0126 122.966 36.7999L125.367 37.3806C127.832 37.9613 128.916 38.8131 128.916 40.2327C128.916 41.8845 127.212 43.0847 124.889 43.0847C122.398 43.0847 120.669 41.962 120.424 40.1939H117.559Z" fill="white"/>
<path d="M89.828 31.4177C87.9852 31.4177 86.3914 32.3391 85.5697 33.8831H85.3704V31.6419H82.793V49.7085H85.47V43.1467H85.6817C86.3914 44.5786 87.9229 45.4253 89.8529 45.4253C93.2769 45.4253 95.4559 42.7234 95.4559 38.4153C95.4559 34.1072 93.2769 31.4177 89.828 31.4177ZM89.0684 43.0222C86.8272 43.0222 85.4202 41.2542 85.4202 38.4278C85.4202 35.5889 86.8272 33.8208 89.0809 33.8208C91.347 33.8208 92.7042 35.5515 92.7042 38.4153C92.7042 41.2915 91.347 43.0222 89.0684 43.0222Z" fill="white"/>
<path d="M104.823 31.4177C102.98 31.4177 101.387 32.3391 100.565 33.8831H100.366V31.6419H97.7882V49.7085H100.465V43.1467H100.677C101.387 44.5786 102.918 45.4253 104.848 45.4253C108.272 45.4253 110.451 42.7234 110.451 38.4153C110.451 34.1072 108.272 31.4177 104.823 31.4177ZM104.064 43.0222C101.822 43.0222 100.415 41.2542 100.415 38.4278C100.415 35.5889 101.822 33.8208 104.076 33.8208C106.342 33.8208 107.699 35.5515 107.699 38.4153C107.699 41.2915 106.342 43.0222 104.064 43.0222Z" fill="white"/>
<path d="M77.99 45.2012H81.0615L74.3378 26.5789H71.2277L64.504 45.2012H67.4722L69.1886 40.2585H76.2865L77.99 45.2012ZM72.6344 29.9601H72.8537L75.5509 37.8323H69.9242L72.6344 29.9601Z" fill="white"/>
<path d="M68.504 10.5692V19.5527H71.7476C74.4246 19.5527 75.9747 17.903 75.9747 15.033C75.9747 12.2065 74.4121 10.5692 71.7476 10.5692H68.504ZM69.8986 11.8392H71.5919C73.4534 11.8392 74.5553 13.0221 74.5553 15.0516C74.5553 17.1123 73.472 18.2827 71.5919 18.2827H69.8986V11.8392Z" fill="white"/>
<path d="M80.7224 19.6835C82.7021 19.6835 83.9161 18.3574 83.9161 16.1598C83.9161 13.9746 82.6959 12.6423 80.7224 12.6423C78.7426 12.6423 77.5224 13.9746 77.5224 16.1598C77.5224 18.3574 78.7364 19.6835 80.7224 19.6835ZM80.7224 18.4944C79.5582 18.4944 78.9045 17.6415 78.9045 16.1598C78.9045 14.6906 79.5582 13.8314 80.7224 13.8314C81.8803 13.8314 82.5402 14.6906 82.5402 16.1598C82.5402 17.6353 81.8803 18.4944 80.7224 18.4944Z" fill="white"/>
<path d="M94.2543 12.7731H92.9158L91.708 17.9465H91.6022L90.2077 12.7731H88.9252L87.5307 17.9465H87.4311L86.2171 12.7731H84.8599L86.7276 19.5527H88.1034L89.4979 14.5598H89.6038L91.0045 19.5527H92.3928L94.2543 12.7731Z" fill="white"/>
<path d="M95.7957 19.5527H97.1342V15.587C97.1342 14.5287 97.763 13.8688 98.7529 13.8688C99.7428 13.8688 100.216 14.4104 100.216 15.4999V19.5527H101.554V15.1637C101.554 13.5513 100.72 12.6423 99.2074 12.6423C98.1864 12.6423 97.514 13.0968 97.1841 13.8501H97.0844V12.7731H95.7957V19.5527Z" fill="white"/>
<path d="M103.662 19.5527H105.001V10.1272H103.662V19.5527Z" fill="white"/>
<path d="M110.035 19.6835C112.015 19.6835 113.229 18.3574 113.229 16.1598C113.229 13.9746 112.008 12.6423 110.035 12.6423C108.055 12.6423 106.835 13.9746 106.835 16.1598C106.835 18.3574 108.049 19.6835 110.035 19.6835ZM110.035 18.4944C108.871 18.4944 108.217 17.6415 108.217 16.1598C108.217 14.6906 108.871 13.8314 110.035 13.8314C111.193 13.8314 111.853 14.6906 111.853 16.1598C111.853 17.6353 111.193 18.4944 110.035 18.4944Z" fill="white"/>
<path d="M117.217 18.538C116.488 18.538 115.959 18.1831 115.959 17.573C115.959 16.9753 116.383 16.6578 117.316 16.5956L118.972 16.4897V17.0563C118.972 17.8967 118.225 18.538 117.217 18.538ZM116.874 19.6648C117.765 19.6648 118.505 19.2788 118.91 18.6002H119.016V19.5527H120.305V14.9209C120.305 13.489 119.346 12.6423 117.646 12.6423C116.109 12.6423 115.013 13.3894 114.876 14.5536H116.171C116.32 14.0742 116.837 13.8003 117.584 13.8003C118.499 13.8003 118.972 14.205 118.972 14.9209V15.5061L117.136 15.6119C115.523 15.7115 114.614 16.415 114.614 17.6353C114.614 18.8741 115.567 19.6648 116.874 19.6648Z" fill="white"/>
<path d="M124.847 19.6648C125.781 19.6648 126.571 19.2228 126.976 18.4819H127.082V19.5527H128.364V10.1272H127.026V13.8501H126.926C126.559 13.103 125.774 12.661 124.847 12.661C123.135 12.661 122.033 14.0182 122.033 16.1598C122.033 18.3076 123.122 19.6648 124.847 19.6648ZM125.227 13.8625C126.347 13.8625 127.051 14.7528 127.051 16.166C127.051 17.5854 126.353 18.4633 125.227 18.4633C124.094 18.4633 123.415 17.5979 123.415 16.1598C123.415 14.7341 124.1 13.8625 125.227 13.8625Z" fill="white"/>
<path d="M137.044 19.6835C139.024 19.6835 140.238 18.3574 140.238 16.1598C140.238 13.9746 139.018 12.6423 137.044 12.6423C135.064 12.6423 133.844 13.9746 133.844 16.1598C133.844 18.3574 135.058 19.6835 137.044 19.6835ZM137.044 18.4944C135.88 18.4944 135.226 17.6415 135.226 16.1598C135.226 14.6906 135.88 13.8314 137.044 13.8314C138.202 13.8314 138.862 14.6906 138.862 16.1598C138.862 17.6353 138.202 18.4944 137.044 18.4944Z" fill="white"/>
<path d="M142.01 19.5527H143.348V15.587C143.348 14.5287 143.977 13.8688 144.967 13.8688C145.957 13.8688 146.43 14.4104 146.43 15.4999V19.5527H147.768V15.1637C147.768 13.5513 146.934 12.6423 145.421 12.6423C144.4 12.6423 143.728 13.0968 143.398 13.8501H143.298V12.7731H142.01V19.5527Z" fill="white"/>
<path d="M153.933 11.0859V12.8042H152.856V13.931H153.933V17.7598C153.933 19.0671 154.524 19.5901 156.012 19.5901C156.274 19.5901 156.523 19.559 156.74 19.5216V18.4072C156.554 18.4259 156.435 18.4384 156.23 18.4384C155.564 18.4384 155.271 18.1271 155.271 17.4174V13.931H156.74V12.8042H155.271V11.0859H153.933Z" fill="white"/>
<path d="M158.537 19.5527H159.876V15.5933C159.876 14.566 160.486 13.875 161.582 13.875C162.528 13.875 163.032 14.4229 163.032 15.5061V19.5527H164.371V15.1761C164.371 13.5637 163.48 12.6486 162.036 12.6486C161.015 12.6486 160.299 13.103 159.969 13.8625H159.863V10.1272H158.537V19.5527Z" fill="white"/>
<path d="M169.199 13.7816C170.189 13.7816 170.836 14.4727 170.868 15.5372H167.444C167.518 14.4789 168.209 13.7816 169.199 13.7816ZM170.861 17.7224C170.612 18.2516 170.058 18.5442 169.249 18.5442C168.178 18.5442 167.487 17.7909 167.444 16.6018V16.5271H172.231V16.0602C172.231 13.931 171.092 12.6423 169.205 12.6423C167.294 12.6423 166.08 14.0182 166.08 16.1847C166.08 18.3512 167.269 19.6835 169.212 19.6835C170.762 19.6835 171.845 18.9364 172.15 17.7224H170.861Z" fill="white"/>
<path d="M49.196 29.5784C49.2285 27.0569 50.5826 24.671 52.7308 23.3503C51.3756 21.4149 49.1057 20.1877 46.7441 20.1138C44.2252 19.8494 41.7833 21.6211 40.4997 21.6211C39.1913 21.6211 37.2151 20.1401 35.087 20.1838C32.3131 20.2735 29.7271 21.8505 28.3776 24.2757C25.4766 29.2983 27.6405 36.6799 30.4194 40.7398C31.8097 42.7278 33.4347 44.9485 35.5608 44.8697C37.6414 44.7834 38.4185 43.543 40.9299 43.543C43.4181 43.543 44.1471 44.8697 46.3164 44.8197C48.549 44.7834 49.9556 42.8228 51.2972 40.8159C52.2962 39.3994 53.0649 37.8338 53.5748 36.1772C50.9511 35.0675 49.199 32.4271 49.196 29.5784Z" fill="white"/>
<path d="M45.0985 17.4438C46.3158 15.9825 46.9155 14.1042 46.7703 12.2079C44.9105 12.4032 43.1926 13.2921 41.9589 14.6973C40.7525 16.0703 40.1246 17.9155 40.2433 19.7394C42.1037 19.7585 43.9327 18.8938 45.0985 17.4438Z" fill="white"/>
</svg>
