<svg width="204" height="60" viewBox="0 0 204 60" fill="none" xmlns="http://www.w3.org/2000/svg">
<g id="Mobile app store badge">
<rect x="1.48077" y="0.75" width="201.5" height="58.5" rx="6.17308" fill="black"/>
<path id="Google Play" d="M102.935 32.6267C99.4068 32.6267 96.5313 35.3102 96.5313 39.0062C96.5313 42.6797 99.4068 45.3857 102.935 45.3857C106.464 45.3857 109.34 42.6797 109.34 39.0062C109.338 35.3102 106.463 32.6267 102.935 32.6267ZM102.935 42.8747C101.001 42.8747 99.3348 41.2802 99.3348 39.0077C99.3348 36.7112 101.003 35.1407 102.935 35.1407C104.868 35.1407 106.535 36.7112 106.535 39.0077C106.535 41.2787 104.868 42.8747 102.935 42.8747ZM88.9638 32.6267C85.4358 32.6267 82.5603 35.3102 82.5603 39.0062C82.5603 42.6797 85.4358 45.3857 88.9638 45.3857C92.4933 45.3857 95.3688 42.6797 95.3688 39.0062C95.3688 35.3102 92.4933 32.6267 88.9638 32.6267ZM88.9638 42.8747C87.0303 42.8747 85.3638 41.2802 85.3638 39.0077C85.3638 36.7112 87.0318 35.1407 88.9638 35.1407C90.8973 35.1407 92.5638 36.7112 92.5638 39.0077C92.5653 41.2787 90.8973 42.8747 88.9638 42.8747ZM72.3468 34.5857V37.2917H78.8238C78.6303 38.8142 78.1233 39.9257 77.3493 40.6982C76.4073 41.6402 74.9328 42.6797 72.3468 42.6797C68.3598 42.6797 65.2428 39.4652 65.2428 35.4782C65.2428 31.4912 68.3598 28.2767 72.3468 28.2767C74.4978 28.2767 76.0683 29.1227 77.2278 30.2102L79.1373 28.3007C77.5173 26.7542 75.3678 25.5707 72.3468 25.5707C66.8853 25.5707 62.2938 30.0167 62.2938 35.4782C62.2938 40.9397 66.8853 45.3857 72.3468 45.3857C75.2943 45.3857 77.5188 44.4182 79.2573 42.6062C81.0453 40.8182 81.6018 38.3042 81.6018 36.2747C81.6018 35.6477 81.5538 35.0672 81.4563 34.5842H72.3468V34.5857ZM140.309 36.6872C139.778 35.2622 138.158 32.6267 134.847 32.6267C131.561 32.6267 128.829 35.2127 128.829 39.0062C128.829 42.5822 131.537 45.3857 135.161 45.3857C138.084 45.3857 139.776 43.5977 140.478 42.5582L138.303 41.1077C137.579 42.1712 136.587 42.8717 135.161 42.8717C133.736 42.8717 132.72 42.2192 132.068 40.9382L140.598 37.4102L140.309 36.6872ZM131.609 38.8142C131.537 36.3482 133.518 35.0927 134.945 35.0927C136.056 35.0927 136.998 35.6492 137.313 36.4457L131.609 38.8142ZM124.674 45.0002H127.476V26.2487H124.674V45.0002ZM120.081 34.0532H119.985C119.357 33.3032 118.148 32.6267 116.627 32.6267C113.436 32.6267 110.513 35.4302 110.513 39.0317C110.513 42.6077 113.436 45.3872 116.627 45.3872C118.149 45.3872 119.357 44.7107 119.985 43.9382H120.081V44.8562C120.081 47.2967 118.776 48.6017 116.675 48.6017C114.959 48.6017 113.895 47.3702 113.46 46.3307L111.02 47.3462C111.72 49.0367 113.58 51.1157 116.675 51.1157C119.961 51.1157 122.741 49.1822 122.741 44.4692V33.0152H120.083V34.0532H120.081ZM116.868 42.8747C114.935 42.8747 113.316 41.2547 113.316 39.0317C113.316 36.7832 114.935 35.1407 116.868 35.1407C118.776 35.1407 120.275 36.7832 120.275 39.0317C120.275 41.2547 118.776 42.8747 116.868 42.8747ZM153.44 26.2487H146.733V45.0002H149.531V37.8962H153.438C156.54 37.8962 159.591 35.6507 159.591 32.0732C159.591 28.4957 156.542 26.2487 153.44 26.2487ZM153.512 35.2862H149.531V28.8587H153.512C155.604 28.8587 156.792 30.5912 156.792 32.0732C156.792 33.5252 155.604 35.2862 153.512 35.2862ZM170.81 32.5937C168.783 32.5937 166.685 33.4862 165.816 35.4647L168.3 36.5012C168.831 35.4647 169.821 35.1257 170.858 35.1257C172.305 35.1257 173.777 35.9942 173.801 37.5377V37.7312C173.294 37.4417 172.208 37.0082 170.882 37.0082C168.204 37.0082 165.477 38.4797 165.477 41.2292C165.477 43.7387 167.673 45.3542 170.133 45.3542C172.014 45.3542 173.052 44.5097 173.703 43.5197H173.799V44.9672H176.502V37.7777C176.504 34.4507 174.017 32.5937 170.81 32.5937ZM170.471 42.8702C169.556 42.8702 168.276 42.4112 168.276 41.2772C168.276 39.8297 169.869 39.2747 171.245 39.2747C172.473 39.2747 173.054 39.5402 173.801 39.9017C173.583 41.6402 172.088 42.8702 170.471 42.8702ZM186.345 33.0032L183.137 41.1332H183.041L179.711 33.0032H176.696L181.689 44.3657L178.842 50.6867H181.761L189.458 33.0032H186.345ZM161.136 45.0002H163.934V26.2487H161.136V45.0002Z" fill="white"/>
<g id="Get it on">
<path d="M71.8578 15.3644C71.8578 16.6214 71.4858 17.6219 70.7403 18.3689C69.8943 19.2569 68.7904 19.7009 67.4344 19.7009C66.1354 19.7009 65.0299 19.2509 64.1224 18.3509C63.2134 17.4494 62.7589 16.3334 62.7589 15.0014C62.7589 13.6679 63.2134 12.5519 64.1224 11.6519C65.0299 10.7504 66.1354 10.3004 67.4344 10.3004C68.0794 10.3004 68.6958 10.4264 69.2808 10.6769C69.8673 10.9289 70.3368 11.2634 70.6878 11.6819L69.8973 12.4739C69.3018 11.7614 68.4813 11.4059 67.4328 11.4059C66.4848 11.4059 65.6658 11.7389 64.9743 12.4049C64.2828 13.0709 63.9378 13.9364 63.9378 14.9999C63.9378 16.0634 64.2828 16.9289 64.9743 17.5949C65.6658 18.2609 66.4848 18.5939 67.4328 18.5939C68.4378 18.5939 69.2763 18.2594 69.9468 17.5889C70.3818 17.1524 70.6338 16.5449 70.7013 15.7664H67.4328V14.6849H71.7933C71.8383 14.9204 71.8578 15.1469 71.8578 15.3644Z" fill="white"/>
<path d="M78.773 11.6055H74.675V14.4585H78.371V15.54H74.675V18.393H78.773V19.5H73.5185V10.5H78.773V11.6055Z" fill="white"/>
<path d="M83.6493 19.5H82.4928V11.6055H79.9788V10.5H86.1633V11.6055H83.6493V19.5Z" fill="white"/>
<path d="M90.6378 19.5V10.5H91.7943V19.5H90.6378Z" fill="white"/>
<path d="M96.923 19.5H95.7665V11.6055H93.2525V10.5H99.437V11.6055H96.923V19.5Z" fill="white"/>
<path d="M111.144 18.3375C110.259 19.2465 109.16 19.701 107.844 19.701C106.529 19.701 105.429 19.2465 104.546 18.3375C103.661 17.4285 103.22 16.3155 103.22 15C103.22 13.6845 103.661 12.5715 104.546 11.6625C105.429 10.7535 106.529 10.2975 107.844 10.2975C109.152 10.2975 110.25 10.755 111.138 11.6685C112.026 12.582 112.47 13.692 112.47 15C112.47 16.3155 112.028 17.4285 111.144 18.3375ZM105.399 17.583C106.065 18.258 106.88 18.594 107.844 18.594C108.809 18.594 109.625 18.2565 110.289 17.583C110.955 16.908 111.29 16.047 111.29 15C111.29 13.953 110.955 13.092 110.289 12.417C109.625 11.742 108.809 11.406 107.844 11.406C106.88 11.406 106.065 11.7435 105.399 12.417C104.735 13.092 104.4 13.953 104.4 15C104.4 16.047 104.735 16.908 105.399 17.583Z" fill="white"/>
<path d="M114.093 19.5V10.5H115.5L119.874 17.5005H119.924L119.874 15.7665V10.5H121.031V19.5H119.823L115.247 12.159H115.197L115.247 13.893V19.5H114.093Z" fill="white"/>
<path d="M71.8578 15.3644C71.8578 16.6214 71.4858 17.6219 70.7403 18.3689C69.8943 19.2569 68.7904 19.7009 67.4344 19.7009C66.1354 19.7009 65.0299 19.2509 64.1224 18.3509C63.2134 17.4494 62.7589 16.3334 62.7589 15.0014C62.7589 13.6679 63.2134 12.5519 64.1224 11.6519C65.0299 10.7504 66.1354 10.3004 67.4344 10.3004C68.0794 10.3004 68.6958 10.4264 69.2808 10.6769C69.8673 10.9289 70.3368 11.2634 70.6878 11.6819L69.8973 12.4739C69.3018 11.7614 68.4813 11.4059 67.4328 11.4059C66.4848 11.4059 65.6658 11.7389 64.9743 12.4049C64.2828 13.0709 63.9378 13.9364 63.9378 14.9999C63.9378 16.0634 64.2828 16.9289 64.9743 17.5949C65.6658 18.2609 66.4848 18.5939 67.4328 18.5939C68.4378 18.5939 69.2763 18.2594 69.9468 17.5889C70.3818 17.1524 70.6338 16.5449 70.7013 15.7664H67.4328V14.6849H71.7933C71.8383 14.9204 71.8578 15.1469 71.8578 15.3644Z" stroke="white" stroke-width="0.3" stroke-miterlimit="10"/>
<path d="M78.773 11.6055H74.675V14.4585H78.371V15.54H74.675V18.393H78.773V19.5H73.5185V10.5H78.773V11.6055Z" stroke="white" stroke-width="0.3" stroke-miterlimit="10"/>
<path d="M83.6493 19.5H82.4928V11.6055H79.9788V10.5H86.1633V11.6055H83.6493V19.5Z" stroke="white" stroke-width="0.3" stroke-miterlimit="10"/>
<path d="M90.6378 19.5V10.5H91.7943V19.5H90.6378Z" stroke="white" stroke-width="0.3" stroke-miterlimit="10"/>
<path d="M96.923 19.5H95.7665V11.6055H93.2525V10.5H99.437V11.6055H96.923V19.5Z" stroke="white" stroke-width="0.3" stroke-miterlimit="10"/>
<path d="M111.144 18.3375C110.259 19.2465 109.16 19.701 107.844 19.701C106.529 19.701 105.429 19.2465 104.546 18.3375C103.661 17.4285 103.22 16.3155 103.22 15C103.22 13.6845 103.661 12.5715 104.546 11.6625C105.429 10.7535 106.529 10.2975 107.844 10.2975C109.152 10.2975 110.25 10.755 111.138 11.6685C112.026 12.582 112.47 13.692 112.47 15C112.47 16.3155 112.028 17.4285 111.144 18.3375ZM105.399 17.583C106.065 18.258 106.88 18.594 107.844 18.594C108.809 18.594 109.625 18.2565 110.289 17.583C110.955 16.908 111.29 16.047 111.29 15C111.29 13.953 110.955 13.092 110.289 12.417C109.625 11.742 108.809 11.406 107.844 11.406C106.88 11.406 106.065 11.7435 105.399 12.417C104.735 13.092 104.4 13.953 104.4 15C104.4 16.047 104.735 16.908 105.399 17.583Z" stroke="white" stroke-width="0.3" stroke-miterlimit="10"/>
<path d="M114.093 19.5V10.5H115.5L119.874 17.5005H119.924L119.874 15.7665V10.5H121.031V19.5H119.823L115.247 12.159H115.197L115.247 13.893V19.5H114.093Z" stroke="white" stroke-width="0.3" stroke-miterlimit="10"/>
</g>
<g id="Google Play logo" filter="url(#filter0_ii_725_6323)">
<path id="Vector" d="M16.3848 11.307C15.9483 11.769 15.6903 12.486 15.6903 13.4145V46.5885C15.6903 47.5185 15.9483 48.234 16.3848 48.696L16.4958 48.804L35.0793 30.2205V30.0015V29.7825L16.4958 11.1975L16.3848 11.307Z" fill="url(#paint0_linear_725_6323)"/>
<path id="Vector_2" d="M41.2728 36.417L35.0793 30.2205V30.0015V29.7825L41.2743 23.5875L41.4138 23.667L48.7533 27.837C50.8488 29.028 50.8488 30.9765 48.7533 32.169L41.4138 36.339L41.2728 36.417Z" fill="url(#paint1_linear_725_6323)"/>
<g id="Vector_3" filter="url(#filter1_i_725_6323)">
<path d="M41.4137 36.3375L35.0777 30.0015L16.3848 48.696C17.0748 49.428 18.2162 49.518 19.5017 48.789L41.4137 36.3375Z" fill="url(#paint2_linear_725_6323)"/>
</g>
<path id="Vector_4" d="M41.4137 23.6655L19.5017 11.2155C18.2162 10.485 17.0748 10.5765 16.3848 11.3085L35.0792 30.003L41.4137 23.6655Z" fill="url(#paint3_linear_725_6323)"/>
</g>
<rect x="1.48077" y="0.75" width="201.5" height="58.5" rx="6.17308" stroke="#E5E6E8" stroke-width="1.5"/>
</g>
<defs>
<filter id="filter0_ii_725_6323" x="15.6903" y="10.7114" width="34.6346" height="38.5811" filterUnits="userSpaceOnUse" color-interpolation-filters="sRGB">
<feFlood flood-opacity="0" result="BackgroundImageFix"/>
<feBlend mode="normal" in="SourceGraphic" in2="BackgroundImageFix" result="shape"/>
<feColorMatrix in="SourceAlpha" type="matrix" values="0 0 0 0 0 0 0 0 0 0 0 0 0 0 0 0 0 0 127 0" result="hardAlpha"/>
<feOffset dy="-0.225"/>
<feComposite in2="hardAlpha" operator="arithmetic" k2="-1" k3="1"/>
<feColorMatrix type="matrix" values="0 0 0 0 0 0 0 0 0 0 0 0 0 0 0 0 0 0 0.12 0"/>
<feBlend mode="normal" in2="shape" result="effect1_innerShadow_725_6323"/>
<feColorMatrix in="SourceAlpha" type="matrix" values="0 0 0 0 0 0 0 0 0 0 0 0 0 0 0 0 0 0 127 0" result="hardAlpha"/>
<feOffset dy="0.225"/>
<feComposite in2="hardAlpha" operator="arithmetic" k2="-1" k3="1"/>
<feColorMatrix type="matrix" values="0 0 0 0 1 0 0 0 0 1 0 0 0 0 1 0 0 0 0.25 0"/>
<feBlend mode="normal" in2="effect1_innerShadow_725_6323" result="effect2_innerShadow_725_6323"/>
</filter>
<filter id="filter1_i_725_6323" x="16.3848" y="30.0015" width="25.029" height="19.291" filterUnits="userSpaceOnUse" color-interpolation-filters="sRGB">
<feFlood flood-opacity="0" result="BackgroundImageFix"/>
<feBlend mode="normal" in="SourceGraphic" in2="BackgroundImageFix" result="shape"/>
<feColorMatrix in="SourceAlpha" type="matrix" values="0 0 0 0 0 0 0 0 0 0 0 0 0 0 0 0 0 0 127 0" result="hardAlpha"/>
<feOffset dy="-0.225"/>
<feComposite in2="hardAlpha" operator="arithmetic" k2="-1" k3="1"/>
<feColorMatrix type="matrix" values="0 0 0 0 0 0 0 0 0 0 0 0 0 0 0 0 0 0 0.08 0"/>
<feBlend mode="normal" in2="shape" result="effect1_innerShadow_725_6323"/>
</filter>
<linearGradient id="paint0_linear_725_6323" x1="33.432" y1="13.0635" x2="8.25896" y2="38.2365" gradientUnits="userSpaceOnUse">
<stop stop-color="#00A0FF"/>
<stop offset="0.0066" stop-color="#00A1FF"/>
<stop offset="0.2601" stop-color="#00BEFF"/>
<stop offset="0.5122" stop-color="#00D2FF"/>
<stop offset="0.7604" stop-color="#00DFFF"/>
<stop offset="1" stop-color="#00E3FF"/>
</linearGradient>
<linearGradient id="paint1_linear_725_6323" x1="51.481" y1="30.0015" x2="15.1872" y2="30.0015" gradientUnits="userSpaceOnUse">
<stop stop-color="#FFE000"/>
<stop offset="0.4087" stop-color="#FFBD00"/>
<stop offset="0.7754" stop-color="#FFA500"/>
<stop offset="1" stop-color="#FF9C00"/>
</linearGradient>
<linearGradient id="paint2_linear_725_6323" x1="37.9729" y1="33.4424" x2="3.83516" y2="67.5801" gradientUnits="userSpaceOnUse">
<stop stop-color="#FF3A44"/>
<stop offset="1" stop-color="#C31162"/>
</linearGradient>
<linearGradient id="paint3_linear_725_6323" x1="11.6769" y1="0.26521" x2="26.9203" y2="15.5087" gradientUnits="userSpaceOnUse">
<stop stop-color="#32A071"/>
<stop offset="0.0685" stop-color="#2DA771"/>
<stop offset="0.4762" stop-color="#15CF74"/>
<stop offset="0.8009" stop-color="#06E775"/>
<stop offset="1" stop-color="#00F076"/>
</linearGradient>
</defs>
</svg>
