<svg width="203" height="61" viewBox="0 0 203 61" fill="none" xmlns="http://www.w3.org/2000/svg">
<rect x="0.75" y="0.877197" width="201.5" height="58.5" rx="6.17308" fill="#232949"/>
<rect x="0.75" y="0.877197" width="201.5" height="58.5" rx="6.17308" stroke="#E5E6E8" stroke-width="1.5"/>
<path d="M102.204 32.7542C98.676 32.7542 95.8005 35.4377 95.8005 39.1337C95.8005 42.8072 98.676 45.5132 102.204 45.5132C105.733 45.5132 108.609 42.8072 108.609 39.1337C108.607 35.4377 105.732 32.7542 102.204 32.7542ZM102.204 43.0022C100.27 43.0022 98.604 41.4077 98.604 39.1352C98.604 36.8387 100.272 35.2682 102.204 35.2682C104.137 35.2682 105.804 36.8387 105.804 39.1352C105.804 41.4062 104.137 43.0022 102.204 43.0022ZM88.233 32.7542C84.705 32.7542 81.8295 35.4377 81.8295 39.1337C81.8295 42.8072 84.705 45.5132 88.233 45.5132C91.7625 45.5132 94.638 42.8072 94.638 39.1337C94.638 35.4377 91.7625 32.7542 88.233 32.7542ZM88.233 43.0022C86.2995 43.0022 84.633 41.4077 84.633 39.1352C84.633 36.8387 86.301 35.2682 88.233 35.2682C90.1665 35.2682 91.833 36.8387 91.833 39.1352C91.8345 41.4062 90.1665 43.0022 88.233 43.0022ZM71.616 34.7132V37.4192H78.093C77.8995 38.9417 77.3925 40.0532 76.6185 40.8257C75.6765 41.7677 74.202 42.8072 71.616 42.8072C67.629 42.8072 64.512 39.5927 64.512 35.6057C64.512 31.6187 67.629 28.4042 71.616 28.4042C73.767 28.4042 75.3375 29.2502 76.497 30.3377L78.4065 28.4282C76.7865 26.8817 74.637 25.6982 71.616 25.6982C66.1545 25.6982 61.563 30.1442 61.563 35.6057C61.563 41.0672 66.1545 45.5132 71.616 45.5132C74.5635 45.5132 76.788 44.5457 78.5265 42.7337C80.3145 40.9457 80.871 38.4317 80.871 36.4022C80.871 35.7752 80.823 35.1947 80.7255 34.7117H71.616V34.7132ZM139.578 36.8147C139.047 35.3897 137.427 32.7542 134.116 32.7542C130.83 32.7542 128.098 35.3402 128.098 39.1337C128.098 42.7097 130.806 45.5132 134.43 45.5132C137.353 45.5132 139.045 43.7252 139.747 42.6857L137.572 41.2352C136.848 42.2987 135.856 42.9992 134.43 42.9992C133.005 42.9992 131.989 42.3467 131.337 41.0657L139.867 37.5377L139.578 36.8147ZM130.878 38.9417C130.806 36.4757 132.787 35.2202 134.214 35.2202C135.325 35.2202 136.267 35.7767 136.582 36.5732L130.878 38.9417ZM123.943 45.1277H126.745V26.3762H123.943V45.1277ZM119.35 34.1807H119.254C118.626 33.4307 117.417 32.7542 115.896 32.7542C112.705 32.7542 109.782 35.5577 109.782 39.1592C109.782 42.7352 112.705 45.5147 115.896 45.5147C117.418 45.5147 118.626 44.8382 119.254 44.0657H119.35V44.9837C119.35 47.4242 118.045 48.7292 115.944 48.7292C114.228 48.7292 113.164 47.4977 112.729 46.4582L110.289 47.4737C110.989 49.1642 112.849 51.2432 115.944 51.2432C119.23 51.2432 122.01 49.3097 122.01 44.5967V33.1427H119.352V34.1807H119.35ZM116.137 43.0022C114.204 43.0022 112.585 41.3822 112.585 39.1592C112.585 36.9107 114.204 35.2682 116.137 35.2682C118.045 35.2682 119.544 36.9107 119.544 39.1592C119.544 41.3822 118.045 43.0022 116.137 43.0022ZM152.709 26.3762H146.002V45.1277H148.8V38.0237H152.707C155.809 38.0237 158.86 35.7782 158.86 32.2007C158.86 28.6232 155.811 26.3762 152.709 26.3762ZM152.781 35.4137H148.8V28.9862H152.781C154.873 28.9862 156.061 30.7187 156.061 32.2007C156.061 33.6527 154.873 35.4137 152.781 35.4137ZM170.079 32.7212C168.052 32.7212 165.954 33.6137 165.085 35.5922L167.569 36.6287C168.1 35.5922 169.09 35.2532 170.127 35.2532C171.574 35.2532 173.046 36.1217 173.07 37.6652V37.8587C172.563 37.5692 171.477 37.1357 170.151 37.1357C167.473 37.1357 164.746 38.6072 164.746 41.3567C164.746 43.8662 166.942 45.4817 169.402 45.4817C171.283 45.4817 172.321 44.6372 172.972 43.6472H173.068V45.0947H175.771V37.9052C175.773 34.5782 173.286 32.7212 170.079 32.7212ZM169.74 42.9977C168.825 42.9977 167.545 42.5387 167.545 41.4047C167.545 39.9572 169.138 39.4022 170.514 39.4022C171.742 39.4022 172.323 39.6677 173.07 40.0292C172.852 41.7677 171.357 42.9977 169.74 42.9977ZM185.614 33.1307L182.406 41.2607H182.31L178.98 33.1307H175.965L180.958 44.4932L178.111 50.8142H181.03L188.727 33.1307H185.614ZM160.405 45.1277H163.203V26.3762H160.405V45.1277Z" fill="white"/>
<path d="M71.1271 15.4912C71.1271 16.7482 70.7551 17.7487 70.0096 18.4957C69.1636 19.3837 68.0596 19.8277 66.7036 19.8277C65.4046 19.8277 64.2991 19.3777 63.3916 18.4777C62.4826 17.5762 62.0281 16.4602 62.0281 15.1282C62.0281 13.7947 62.4826 12.6787 63.3916 11.7787C64.2991 10.8772 65.4046 10.4272 66.7036 10.4272C67.3486 10.4272 67.9651 10.5532 68.5501 10.8037C69.1366 11.0557 69.6061 11.3902 69.9571 11.8087L69.1666 12.6007C68.5711 11.8882 67.7506 11.5327 66.7021 11.5327C65.7541 11.5327 64.9351 11.8657 64.2436 12.5317C63.5521 13.1977 63.2071 14.0632 63.2071 15.1267C63.2071 16.1902 63.5521 17.0557 64.2436 17.7217C64.9351 18.3877 65.7541 18.7207 66.7021 18.7207C67.7071 18.7207 68.5456 18.3862 69.2161 17.7157C69.6511 17.2792 69.9031 16.6717 69.9706 15.8932H66.7021V14.8117H71.0626C71.1076 15.0472 71.1271 15.2737 71.1271 15.4912Z" fill="white"/>
<path d="M78.0422 11.7323H73.9442V14.5853H77.6402V15.6668H73.9442V18.5198H78.0422V19.6268H72.7877V10.6268H78.0422V11.7323Z" fill="white"/>
<path d="M82.9185 19.6268H81.762V11.7323H79.248V10.6268H85.4325V11.7323H82.9185V19.6268Z" fill="white"/>
<path d="M89.907 19.6268V10.6268H91.0635V19.6268H89.907Z" fill="white"/>
<path d="M96.1922 19.6268H95.0357V11.7323H92.5217V10.6268H98.7062V11.7323H96.1922V19.6268Z" fill="white"/>
<path d="M110.413 18.4643C109.528 19.3733 108.429 19.8278 107.113 19.8278C105.798 19.8278 104.698 19.3733 103.815 18.4643C102.93 17.5553 102.489 16.4423 102.489 15.1268C102.489 13.8113 102.93 12.6983 103.815 11.7893C104.698 10.8803 105.798 10.4243 107.113 10.4243C108.421 10.4243 109.519 10.8818 110.407 11.7953C111.295 12.7088 111.739 13.8188 111.739 15.1268C111.739 16.4423 111.297 17.5553 110.413 18.4643ZM104.668 17.7098C105.334 18.3848 106.149 18.7208 107.113 18.7208C108.078 18.7208 108.894 18.3833 109.558 17.7098C110.224 17.0348 110.559 16.1738 110.559 15.1268C110.559 14.0798 110.224 13.2188 109.558 12.5438C108.894 11.8688 108.078 11.5328 107.113 11.5328C106.149 11.5328 105.334 11.8703 104.668 12.5438C104.004 13.2188 103.669 14.0798 103.669 15.1268C103.669 16.1738 104.004 17.0348 104.668 17.7098Z" fill="white"/>
<path d="M113.362 19.6268V10.6268H114.769L119.143 17.6273H119.193L119.143 15.8933V10.6268H120.3V19.6268H119.092L114.516 12.2858H114.466L114.516 14.0198V19.6268H113.362Z" fill="white"/>
<path d="M71.1271 15.4912C71.1271 16.7482 70.7551 17.7487 70.0096 18.4957C69.1636 19.3837 68.0596 19.8277 66.7036 19.8277C65.4046 19.8277 64.2991 19.3777 63.3916 18.4777C62.4826 17.5762 62.0281 16.4602 62.0281 15.1282C62.0281 13.7947 62.4826 12.6787 63.3916 11.7787C64.2991 10.8772 65.4046 10.4272 66.7036 10.4272C67.3486 10.4272 67.9651 10.5532 68.5501 10.8037C69.1366 11.0557 69.6061 11.3902 69.9571 11.8087L69.1666 12.6007C68.5711 11.8882 67.7506 11.5327 66.7021 11.5327C65.7541 11.5327 64.9351 11.8657 64.2436 12.5317C63.5521 13.1977 63.2071 14.0632 63.2071 15.1267C63.2071 16.1902 63.5521 17.0557 64.2436 17.7217C64.9351 18.3877 65.7541 18.7207 66.7021 18.7207C67.7071 18.7207 68.5456 18.3862 69.2161 17.7157C69.6511 17.2792 69.9031 16.6717 69.9706 15.8932H66.7021V14.8117H71.0626C71.1076 15.0472 71.1271 15.2737 71.1271 15.4912Z" stroke="white" stroke-width="0.3" stroke-miterlimit="10"/>
<path d="M78.0422 11.7323H73.9442V14.5853H77.6402V15.6668H73.9442V18.5198H78.0422V19.6268H72.7877V10.6268H78.0422V11.7323Z" stroke="white" stroke-width="0.3" stroke-miterlimit="10"/>
<path d="M82.9185 19.6268H81.762V11.7323H79.248V10.6268H85.4325V11.7323H82.9185V19.6268Z" stroke="white" stroke-width="0.3" stroke-miterlimit="10"/>
<path d="M89.907 19.6268V10.6268H91.0635V19.6268H89.907Z" stroke="white" stroke-width="0.3" stroke-miterlimit="10"/>
<path d="M96.1922 19.6268H95.0357V11.7323H92.5217V10.6268H98.7062V11.7323H96.1922V19.6268Z" stroke="white" stroke-width="0.3" stroke-miterlimit="10"/>
<path d="M110.413 18.4643C109.528 19.3733 108.429 19.8278 107.113 19.8278C105.798 19.8278 104.698 19.3733 103.815 18.4643C102.93 17.5553 102.489 16.4423 102.489 15.1268C102.489 13.8113 102.93 12.6983 103.815 11.7893C104.698 10.8803 105.798 10.4243 107.113 10.4243C108.421 10.4243 109.519 10.8818 110.407 11.7953C111.295 12.7088 111.739 13.8188 111.739 15.1268C111.739 16.4423 111.297 17.5553 110.413 18.4643ZM104.668 17.7098C105.334 18.3848 106.149 18.7208 107.113 18.7208C108.078 18.7208 108.894 18.3833 109.558 17.7098C110.224 17.0348 110.559 16.1738 110.559 15.1268C110.559 14.0798 110.224 13.2188 109.558 12.5438C108.894 11.8688 108.078 11.5328 107.113 11.5328C106.149 11.5328 105.334 11.8703 104.668 12.5438C104.004 13.2188 103.669 14.0798 103.669 15.1268C103.669 16.1738 104.004 17.0348 104.668 17.7098Z" stroke="white" stroke-width="0.3" stroke-miterlimit="10"/>
<path d="M113.362 19.6268V10.6268H114.769L119.143 17.6273H119.193L119.143 15.8933V10.6268H120.3V19.6268H119.092L114.516 12.2858H114.466L114.516 14.0198V19.6268H113.362Z" stroke="white" stroke-width="0.3" stroke-miterlimit="10"/>
<g filter="url(#filter0_ii_4854_251)">
<path d="M15.654 11.4349C15.2175 11.8969 14.9595 12.6139 14.9595 13.5424V46.7164C14.9595 47.6464 15.2175 48.3619 15.654 48.8239L15.765 48.9319L34.3485 30.3484V30.1294V29.9104L15.765 11.3254L15.654 11.4349Z" fill="url(#paint0_linear_4854_251)"/>
<path d="M40.542 36.5446L34.3485 30.3481V30.1291V29.9101L40.5435 23.7151L40.683 23.7946L48.0225 27.9646C50.118 29.1556 50.118 31.1041 48.0225 32.2966L40.683 36.4666L40.542 36.5446Z" fill="url(#paint1_linear_4854_251)"/>
<g filter="url(#filter1_i_4854_251)">
<path d="M40.6829 36.4644L34.3469 30.1284L15.6539 48.8229C16.3439 49.5549 17.4854 49.6449 18.7709 48.9159L40.6829 36.4644Z" fill="url(#paint2_linear_4854_251)"/>
</g>
<path d="M40.6831 23.7932L18.7711 11.3432C17.4856 10.6127 16.3441 10.7042 15.6541 11.4362L34.3485 30.1307L40.6831 23.7932Z" fill="url(#paint3_linear_4854_251)"/>
</g>
<defs>
<filter id="filter0_ii_4854_251" x="14.9595" y="10.8391" width="34.6346" height="38.5803" filterUnits="userSpaceOnUse" color-interpolation-filters="sRGB">
<feFlood flood-opacity="0" result="BackgroundImageFix"/>
<feBlend mode="normal" in="SourceGraphic" in2="BackgroundImageFix" result="shape"/>
<feColorMatrix in="SourceAlpha" type="matrix" values="0 0 0 0 0 0 0 0 0 0 0 0 0 0 0 0 0 0 127 0" result="hardAlpha"/>
<feOffset dy="-0.225"/>
<feComposite in2="hardAlpha" operator="arithmetic" k2="-1" k3="1"/>
<feColorMatrix type="matrix" values="0 0 0 0 0 0 0 0 0 0 0 0 0 0 0 0 0 0 0.12 0"/>
<feBlend mode="normal" in2="shape" result="effect1_innerShadow_4854_251"/>
<feColorMatrix in="SourceAlpha" type="matrix" values="0 0 0 0 0 0 0 0 0 0 0 0 0 0 0 0 0 0 127 0" result="hardAlpha"/>
<feOffset dy="0.225"/>
<feComposite in2="hardAlpha" operator="arithmetic" k2="-1" k3="1"/>
<feColorMatrix type="matrix" values="0 0 0 0 1 0 0 0 0 1 0 0 0 0 1 0 0 0 0.25 0"/>
<feBlend mode="normal" in2="effect1_innerShadow_4854_251" result="effect2_innerShadow_4854_251"/>
</filter>
<filter id="filter1_i_4854_251" x="15.6539" y="30.1284" width="25.0291" height="19.291" filterUnits="userSpaceOnUse" color-interpolation-filters="sRGB">
<feFlood flood-opacity="0" result="BackgroundImageFix"/>
<feBlend mode="normal" in="SourceGraphic" in2="BackgroundImageFix" result="shape"/>
<feColorMatrix in="SourceAlpha" type="matrix" values="0 0 0 0 0 0 0 0 0 0 0 0 0 0 0 0 0 0 127 0" result="hardAlpha"/>
<feOffset dy="-0.225"/>
<feComposite in2="hardAlpha" operator="arithmetic" k2="-1" k3="1"/>
<feColorMatrix type="matrix" values="0 0 0 0 0 0 0 0 0 0 0 0 0 0 0 0 0 0 0.08 0"/>
<feBlend mode="normal" in2="shape" result="effect1_innerShadow_4854_251"/>
</filter>
<linearGradient id="paint0_linear_4854_251" x1="32.7012" y1="13.1914" x2="7.52818" y2="38.3644" gradientUnits="userSpaceOnUse">
<stop stop-color="#00A0FF"/>
<stop offset="0.0066" stop-color="#00A1FF"/>
<stop offset="0.2601" stop-color="#00BEFF"/>
<stop offset="0.5122" stop-color="#00D2FF"/>
<stop offset="0.7604" stop-color="#00DFFF"/>
<stop offset="1" stop-color="#00E3FF"/>
</linearGradient>
<linearGradient id="paint1_linear_4854_251" x1="50.7503" y1="30.1291" x2="14.4564" y2="30.1291" gradientUnits="userSpaceOnUse">
<stop stop-color="#FFE000"/>
<stop offset="0.4087" stop-color="#FFBD00"/>
<stop offset="0.7754" stop-color="#FFA500"/>
<stop offset="1" stop-color="#FF9C00"/>
</linearGradient>
<linearGradient id="paint2_linear_4854_251" x1="37.2421" y1="33.5693" x2="3.10434" y2="67.707" gradientUnits="userSpaceOnUse">
<stop stop-color="#FF3A44"/>
<stop offset="1" stop-color="#C31162"/>
</linearGradient>
<linearGradient id="paint3_linear_4854_251" x1="10.9462" y1="0.392926" x2="26.1896" y2="15.6364" gradientUnits="userSpaceOnUse">
<stop stop-color="#32A071"/>
<stop offset="0.0685" stop-color="#2DA771"/>
<stop offset="0.4762" stop-color="#15CF74"/>
<stop offset="0.8009" stop-color="#06E775"/>
<stop offset="1" stop-color="#00F076"/>
</linearGradient>
</defs>
</svg>
