<svg width="30" height="29" viewBox="0 0 30 29" fill="none" xmlns="http://www.w3.org/2000/svg">
<rect x="0.5" y="0.0944824" width="28.6667" height="28.6667" rx="14.3334" fill="white"/>
<path d="M23.6967 13.7171C23.6967 12.2709 23.7042 10.8322 23.6967 9.38602C23.6816 6.97568 21.8056 5.10013 19.3947 5.10013C16.5317 5.0926 13.6687 5.0926 10.8133 5.10013C8.43251 5.10013 6.52637 6.99074 6.5113 9.37096C6.49623 12.2332 6.49623 15.0955 6.5113 17.9503C6.51884 20.3907 8.42498 22.2889 10.866 22.2889C13.6763 22.2964 16.4865 22.2964 19.2968 22.2889C21.8056 22.2889 23.6816 20.4284 23.6967 17.9277C23.7042 16.5267 23.6967 15.1256 23.6967 13.7171ZM20.7358 17.3853C20.231 18.6508 19.0783 19.4266 17.6468 19.4417C14.9872 19.4643 12.3277 19.4718 9.66811 19.5019C9.34414 19.5019 9.2688 19.404 9.2688 19.1027C9.27633 18.3118 9.2688 18.3118 10.0599 18.3118C12.5989 18.3118 15.1304 18.2892 17.6694 18.3194C18.5509 18.3269 19.1385 17.9352 19.5002 17.1895C19.8769 16.4287 19.7865 15.668 19.2591 14.9976C18.8824 14.508 18.3776 14.2368 17.7372 14.2444C15.4393 14.2519 13.1414 14.2519 10.8434 14.2444C10.5647 14.2444 10.4517 14.3046 10.4818 14.5984C10.5044 14.8093 10.5044 15.0277 10.4818 15.2386C10.4441 15.5475 10.5797 15.6152 10.866 15.6152C12.9907 15.6077 15.1078 15.6152 17.2324 15.6002C17.5865 15.6002 17.6769 15.6981 17.6618 16.0446C17.6242 16.8656 17.6468 16.8656 16.818 16.8656C14.4448 16.8581 12.0715 16.843 9.69825 16.843C9.40442 16.843 9.27633 16.7903 9.28387 16.4513C9.30647 15.4571 9.30647 14.4703 9.28387 13.4761C9.27633 13.1748 9.36674 13.0919 9.66811 13.0995C12.3427 13.1145 15.0174 13.0919 17.6844 13.1371C18.7694 13.1522 19.7488 12.1956 19.7488 11.0883C19.7488 9.95848 18.8221 9.03953 17.6844 9.03953C15.4091 9.03953 13.1414 9.04707 10.866 9.032C10.5797 9.032 10.4743 9.09226 10.4743 9.40109C10.4818 10.4179 10.4743 10.4104 11.4989 10.4179C13.3975 10.4255 15.2886 10.4405 17.1872 10.4255C17.5187 10.4255 17.6166 10.5159 17.6091 10.8473C17.5865 11.5478 17.6016 11.5478 16.9084 11.5478C14.5201 11.5478 12.1393 11.5478 9.75099 11.5478C9.2688 11.5478 9.2688 11.5478 9.2688 11.0507C9.2688 10.1317 9.27633 9.22031 9.26127 8.30137C9.25373 7.99254 9.34414 7.89462 9.66058 7.89462C11.1147 7.90969 12.5688 7.90215 14.0304 7.90215C15.4393 7.90215 16.8406 7.90969 18.2495 7.89462C18.6337 7.88709 18.9653 8.00007 19.2742 8.19591C21.2029 9.39355 21.4741 11.7888 19.8467 13.3932C19.6509 13.5891 19.6735 13.6719 19.8618 13.8527C20.9015 14.8244 21.218 16.1726 20.7358 17.3853Z" fill="#4341CD"/>
</svg>
