<svg width="18" height="19" viewBox="0 0 18 19" fill="none" xmlns="http://www.w3.org/2000/svg">
<path d="M9.00293 12.4998V9.49975M9.00293 6.49976H9.01043M5.85293 16.2498H12.1529C13.413 16.2498 14.0431 16.2498 14.5244 16.0045C14.9478 15.7888 15.292 15.4446 15.5077 15.0212C15.7529 14.5399 15.7529 13.9099 15.7529 12.6498V6.34976C15.7529 5.08964 15.7529 4.45958 15.5077 3.97828C15.292 3.55491 14.9478 3.21071 14.5244 2.99499C14.0431 2.74976 13.413 2.74976 12.1529 2.74976H5.85293C4.59281 2.74976 3.96275 2.74976 3.48145 2.99499C3.05809 3.21071 2.71388 3.55491 2.49816 3.97828C2.25293 4.45958 2.25293 5.08964 2.25293 6.34976V12.6498C2.25293 13.9099 2.25293 14.5399 2.49816 15.0212C2.71388 15.4446 3.05809 15.7888 3.48145 16.0045C3.96275 16.2498 4.59281 16.2498 5.85293 16.2498Z" stroke="#4341CD" stroke-width="1.4" stroke-linecap="round" stroke-linejoin="round"/>
</svg>
