<svg width="129" height="129" viewBox="0 0 129 129" fill="none" xmlns="http://www.w3.org/2000/svg">
<g id="Arrow_10" clip-path="url(#clip0_710_4274)">
<g id="Group">
<g id="Group_2">
<path id="Vector" fill-rule="evenodd" clip-rule="evenodd" d="M67.1575 73.0176C70.2261 74.049 72.867 74.3731 74.9139 74.4927C94.4936 75.5585 103.845 59.2747 107.373 42.4882C108.32 37.991 108.252 30.7765 105.846 25.5243C104.157 21.8329 101.342 19.0939 97.0327 18.7036C92.3367 18.2607 87.6853 20.9181 83.6211 24.9277C77.7382 30.7221 73.0616 39.3195 71.1603 44.6369C68.969 50.7708 66.6104 60.596 65.5641 70.4657C62.3418 69.0926 58.7209 66.9086 54.8784 63.3763C53.165 61.8124 51.628 59.5932 50.3289 57.0339C54.0381 54.7235 57.4562 51.5764 60.3748 47.6099C62.8235 44.2721 66.6487 36.3009 67.4631 29.4528C68.0407 24.5641 67.0598 20.2582 63.3971 18.2295C58.8447 15.7167 54.9022 17.0509 51.7642 20.1244C47.3436 24.4499 44.5968 32.3499 44.1339 36.9256C43.5982 42.2495 45.1279 49.9518 47.9772 56.2813C35.0327 63.4286 18.8654 60.3128 9.01339 46.8461C8.71607 46.4487 8.14375 46.3605 7.73529 46.6469C7.3282 46.9501 7.2407 47.5308 7.53802 47.9282C17.9648 62.1745 35.0722 65.5003 48.7784 57.9533C50.1677 60.6739 51.8122 63.0531 53.6416 64.7255C57.8769 68.6138 61.8623 70.9535 65.3782 72.3701C65.2137 74.2223 65.0997 76.0705 65.0461 77.8968C64.801 86.0984 65.7997 93.6923 68.8239 98.4892C75.8108 109.575 88.0412 111.815 99.5439 108.665C110.936 105.542 121.57 97.1324 125.54 87.0407C125.725 86.5701 125.493 86.0325 125.023 85.8515C124.553 85.6706 124.022 85.8996 123.837 86.3701C120.059 95.9738 109.902 103.939 99.0613 106.9C88.3317 109.834 76.8889 107.851 70.3726 97.5192C67.5004 92.9461 66.6431 85.7456 66.875 77.9498C66.9233 76.3264 67.0204 74.6821 67.1575 73.0176ZM49.5291 55.3616C52.9843 53.1731 56.1733 50.2304 58.8992 46.5158C61.2307 43.3394 64.8716 35.7712 65.6455 29.2302C66.1255 25.176 65.5534 21.5115 62.5125 19.8368C58.8024 17.7782 55.6004 18.9339 53.0435 21.437C48.9202 25.4514 46.3863 32.8448 45.955 37.1142C45.4487 42.1152 46.865 49.3882 49.5291 55.3616ZM67.332 71.1478C70.3803 72.2145 72.9984 72.5405 75.0133 72.6627C93.5777 73.6765 102.237 58.0228 105.582 42.1117C106.466 37.9233 106.428 31.1955 104.182 26.2844C102.771 23.2114 100.465 20.8525 96.863 20.5226C92.6551 20.1241 88.5476 22.6358 84.9054 26.2229C79.228 31.815 74.7188 40.1288 72.8834 45.2552C70.6918 51.3892 68.3307 61.2651 67.332 71.1478Z" fill="white"/>
<path id="Vector_2" fill-rule="evenodd" clip-rule="evenodd" d="M8.8431 48.0108C9.73852 48.275 12.3185 49.0258 12.7115 49.1286C13.8141 49.4097 14.4067 49.395 15.0072 49.3122C15.4888 49.2392 15.9783 49.098 16.894 49.0738C17.3994 49.0662 17.7939 48.6291 17.778 48.1243C17.762 47.6195 17.339 47.2323 16.8336 47.2399C16.0047 47.2738 15.4843 47.367 15.0292 47.4548C14.5038 47.5483 14.0929 47.5988 13.1637 47.3542C12.7106 47.2394 10.2591 46.3262 9.06284 46.1372C8.43887 46.0363 7.98656 46.1576 7.79505 46.2913C7.52051 46.4824 7.2737 46.8063 7.12602 47.2908C6.93902 47.9133 6.88374 48.93 6.79616 50.0674C6.7165 51.1367 6.60254 52.3436 6.24167 53.419C5.93246 54.3215 5.44442 55.1205 4.55958 55.564C4.1071 55.7865 3.91829 56.3249 4.14096 56.779C4.36362 57.2332 4.91399 57.4243 5.36646 57.2018C6.70683 56.5525 7.50632 55.3739 7.97295 54.0031C8.38488 52.7886 8.53175 51.427 8.62087 50.2051C8.67763 49.4751 8.71167 48.7975 8.78821 48.2683C8.7998 48.183 8.82145 48.0969 8.8431 48.0108Z" fill="white"/>
</g>
</g>
</g>
<defs>
<clipPath id="clip0_710_4274">
<rect width="118.942" height="118.942" fill="white" transform="translate(118.547 0.285034) rotate(85.3297)"/>
</clipPath>
</defs>
</svg>
